<?xml version="1.0" encoding="utf-8"?>
<svg width="337px" height="337px" viewBox="0 0 337 337" version="1.1" xmlns:xlink="http://www.w3.org/1999/xlink" xmlns="http://www.w3.org/2000/svg">
  <defs>
    <linearGradient x1="0.81541544" y1="0.5" x2="4.1834483E-08" y2="0.115368105" id="gradient_1">
      <stop offset="0" stop-color="#FFFFFF" />
      <stop offset="0.41428173" stop-color="#CBCBCB" />
      <stop offset="1" stop-color="#8D8D8D" />
    </linearGradient>
    <path d="M0 0L210 0L210 297L0 297L0 0Z" id="path_1" />
    <path d="M0 0L100 0L100 100L0 100L0 0Z" id="path_2" />
    <rect width="337" height="337" id="artboard_1" />
    <clipPath id="clip_1">
      <use xlink:href="#artboard_1" clip-rule="evenodd" />
    </clipPath>
    <clipPath id="mask_1">
      <use xlink:href="#path_1" />
    </clipPath>
    <clipPath id="mask_2">
      <use xlink:href="#path_2" />
    </clipPath>
  </defs>
  <g id="Artboard" clip-path="url(#clip_1)">
    <use xlink:href="#artboard_1" stroke="none" fill="#555555" />
    <g id="logo" transform="translate(48 -50)">
      <path d="M0 0L210 0L210 297L0 297L0 0Z" id="Background" fill="none" fill-rule="evenodd" stroke="none" />
      <g clip-path="url(#mask_1)">
        <g id="layer1" transform="translate(62 133)">
          <g id="Mask-group">
            <path d="M0 0L100 0L100 100L0 100L0 0Z" id="rect9182" fill="none" fill-rule="evenodd" stroke="none" />
            <g clip-path="url(#mask_2)">
              <g id="g7996" transform="translate(-72.000046 -64.999954)">
                <g id="g8000">
                  <path d="M75.0862 0L160.792 51.5221L85.7057 176.426L0 124.904L75.0862 0Z" id="rect3581-2" fill="#0D47A1" fill-rule="evenodd" stroke="#FFFFFF" stroke-width="0.529167" />
                  <path d="M75.0862 0L160.792 51.5221L85.7057 176.426L0 124.904L75.0862 0Z" transform="translate(84.20807 53.973835)" id="rect3581-9" fill="#B71C1C" fill-rule="evenodd" stroke="#FFFFFF" stroke-width="0.529167" />
                </g>
              </g>
            </g>
          </g>
          <g id="FLAG" transform="translate(10.900017 17.100039)">
            <g stroke="#FFFFFF" stroke-width="0.352778" id="F" fill="#FF1D1D">
              <path d="M11.1993 5.34406L6.69452 5.34406L6.18327 7.8328L10.2926 7.8328L9.57876 11.0932L5.46945 11.0932L4.46623 15.9164L0.299035 15.9164L3.22186 2.08361L11.8939 2.08361L11.1993 5.34406Z" />
            </g>
            <g stroke="#FFFFFF" stroke-width="0.352778" id="L" fill="#FF1D1D">
              <path d="M19.9099 15.9164L10.9871 15.9164L13.9099 2.08361L18.0771 2.08361L15.8489 12.6559L20.6045 12.6559L19.9099 15.9164Z" />
            </g>
            <g stroke="#FFFFFF" stroke-width="0.352778" id="AG" fill="#FF1D1D">
              <path d="M48.5758 5.47428Q49.497 5.72026 50.2109 6.13505L51.0212 2.54663Q48.7929 1.8521 46.8636 1.8521Q44.0855 1.8521 42.026 2.86496Q39.9665 3.87782 38.8234 5.76849Q37.6803 7.65917 37.6803 9.99357Q37.6803 12.9357 39.3733 14.5466Q41.0662 16.1575 44.1241 16.1575Q46.9408 16.1575 49.2945 15.0096L50.8765 7.5627L44.1626 7.5627L43.4874 10.717L46.034 10.717L45.5999 12.7331Q45.1755 12.8392 44.7318 12.8392Q43.4778 12.8392 42.7929 12.0772Q42.108 11.3151 42.108 9.92604Q42.108 7.72669 43.3475 6.4775Q44.5871 5.2283 46.7864 5.2283Q47.6546 5.2283 48.5758 5.47428ZM31.6437 13.3698L31.8463 15.9164L36.0906 15.9164L34.5279 2.08361L29.3479 2.08361L21.6694 15.9164L26.2514 15.9164L27.4958 13.3698L31.6437 13.3698ZM31.2868 5.24759Q31.2385 5.53698 31.2385 6.19293L31.2482 6.64631L31.4315 10.1093L28.962 10.1093L30.6405 6.56914L31.007 5.72991L31.1903 5.24759L31.2868 5.24759Z" />
            </g>
          </g>
          <g stroke="#FFFFFF" stroke-width="0.352778" id="RUSH" fill="#1D1DFF" transform="translate(36.89998 64.89999)">
            <path d="M36.8763 6.01978Q35.867 5.45801 35.0672 5.22949Q34.2674 5.00098 33.4581 5.00098Q32.8106 5.00098 32.4345 5.2771Q32.0584 5.55322 32.0584 6.00073Q32.0584 6.41968 32.3631 6.72437Q32.6678 7.02905 33.6771 7.5813Q35.2958 8.43823 35.9385 9.34753Q36.5812 10.2568 36.5812 11.6565Q36.5812 12.98 35.8432 14.0178Q35.1053 15.0557 33.8056 15.5603Q32.506 16.0649 30.7254 16.0649Q29.4305 16.0649 28.3022 15.7745Q27.1739 15.4841 26.3265 15.0271L27.0406 11.6565Q28.8592 12.999 30.7254 12.999Q32.2108 12.999 32.2108 11.9421Q32.2108 11.4661 31.8442 11.1471Q31.4776 10.8281 30.5541 10.4092Q29.0116 9.68555 28.3498 8.78577Q27.6881 7.88599 27.6881 6.48633Q27.6881 5.16284 28.4117 4.09167Q29.1354 3.02051 30.3922 2.48254Q31.649 1.94458 33.3058 1.94458Q34.6197 1.94458 35.6623 2.18262Q36.7049 2.42066 37.5523 2.72534L36.8763 6.01978ZM12.2684 8.36206Q13.3396 7.25757 13.3396 5.70557Q13.3396 4.02026 12.0732 3.09668Q10.8069 2.1731 8.54077 2.1731L3.18018 2.1731L0.295166 15.8269L4.40845 15.8269L5.41772 11.0281L5.45581 11.0281Q6.23657 11.0281 6.64124 11.4803Q7.0459 11.9326 7.19824 12.7896L7.70288 15.8269L12.0732 15.8269L11.3115 12.2563Q10.9116 10.3711 9.41675 9.81885L9.41675 9.78076Q11.1973 9.46655 12.2684 8.36206ZM15.1104 14.8462Q16.472 16.0649 19.0142 16.0649Q20.9471 16.0649 22.2848 15.5032Q23.6226 14.9414 24.4748 13.7131Q25.327 12.4849 25.8411 10.1521L27.5359 2.1731L23.4036 2.1731L21.7469 9.91406Q21.4517 11.3137 20.9137 11.9326Q20.3758 12.5515 19.4808 12.5515Q18.7095 12.5515 18.2858 12.0945Q17.8621 11.6375 17.8621 10.8186Q17.8621 10.4282 17.9716 9.90454Q18.0811 9.38086 18.1954 8.80957L19.6236 2.1731L15.4817 2.1731L14.0821 8.77148Q13.7488 10.4377 13.7488 11.3042Q13.7488 13.6274 15.1104 14.8462ZM45.5407 15.8269L49.6825 15.8269L52.5866 2.1731L48.4542 2.1731L47.3783 7.229L42.6557 7.229L43.7316 2.1731L39.6183 2.1731L36.7143 15.8269L40.8275 15.8269L41.913 10.7329L46.6356 10.7329L45.5407 15.8269ZM8.5741 5.40088Q8.9502 5.78174 8.9502 6.46729Q8.95019 7.17188 8.39795 7.65747Q7.8457 8.14307 6.92212 8.14307L6.00806 8.14307L6.71265 5.02002L7.4458 5.02002Q8.198 5.02002 8.5741 5.40088Z" />
          </g>
          <path d="M11.1793 39.4419C9.37817 38.3029 13.9662 31.6012 16.1227 27.6008C17.9072 24.2902 21.2699 17.5604 21.2699 17.5604C21.7703 15.1721 13.1143 9.72294 4.11849 6.76308C0.767432 5.66044 -0.339597 5.06468 0.0872739 4.59351C0.223106 4.44346 2.09297 3.84934 4.24241 3.27307C9.18431 1.94811 21.7305 1.05295 26.1543 2.15695C29.8045 3.06787 29.0429 3.34313 30.3368 1.42556C32.0945 -1.17905 35.1771 0.0848878 33.8878 2.80931C33.3846 3.87261 29.4032 11.7052 17.9828 32.015C15.9375 35.6521 12.906 40.5339 11.1794 39.4419L11.1793 39.4419Z" transform="matrix(0.9998477 0.017452393 -0.017452393 0.9998477 27.691105 30.70696)" id="path110" fill="url(#gradient_1)" fill-rule="evenodd" stroke="#000000" stroke-width="0.705258" />
        </g>
      </g>
    </g>
  </g>
</svg>